<?xml version="1.0" encoding="utf-8"?>
<!-- Generator: Adobe Illustrator 16.0.0, SVG Export Plug-In . SVG Version: 6.00 Build 0)  -->
<!DOCTYPE svg PUBLIC "-//W3C//DTD SVG 1.1//EN" "http://www.w3.org/Graphics/SVG/1.1/DTD/svg11.dtd">
<svg version="1.1" xmlns="http://www.w3.org/2000/svg" xmlns:xlink="http://www.w3.org/1999/xlink" x="0px" y="0px" width="100%"
	  viewBox="0 0 1400 980"  xml:space="preserve">
<g id="BACKGROUND">
	<rect x="-2" fill="transparent" width="1404" height="980"/>
</g>
<g id="OBJECTS">
	<g>
		<g>
			<defs>
				<circle id="SVGID_1_" cx="704.043" cy="495.043" r="417.043"/>
			</defs>
			<clipPath id="SVGID_2_">
				<use xlink:href="#SVGID_1_"  overflow="visible"/>
			</clipPath>
			<polygon clip-path="url(#SVGID_2_)" fill="#130030" points="449,139 449,538 301,801 221,801 221,163 			"/>
			<linearGradient id="SVGID_3_" gradientUnits="userSpaceOnUse" x1="392.4502" y1="193.9224" x2="119.4229" y2="664.9697">
				<stop  offset="0" style="stop-color:#EE782C;stop-opacity:0"/>
				<stop  offset="1" style="stop-color:#EE782C"/>
			</linearGradient>
			<polygon opacity="0.3" clip-path="url(#SVGID_2_)" fill="url(#SVGID_3_)" points="371.074,148.619 378.574,544.588 
				333.576,535.675 221,801 221,163 			"/>
			<rect x="449" y="73" clip-path="url(#SVGID_2_)" fill="#342E4F" width="718" height="474"/>
			<linearGradient id="SVGID_4_" gradientUnits="userSpaceOnUse" x1="449" y1="310" x2="1167" y2="310">
				<stop  offset="0" style="stop-color:#575581;stop-opacity:0"/>
				<stop  offset="1" style="stop-color:#130030"/>
			</linearGradient>
			<rect x="449" y="73" clip-path="url(#SVGID_2_)" fill="url(#SVGID_4_)" width="718" height="474"/>
			<linearGradient id="SVGID_5_" gradientUnits="userSpaceOnUse" x1="418.3242" y1="222.9062" x2="331.8613" y2="46.4508">
				<stop  offset="0" style="stop-color:#F2F2F2;stop-opacity:0"/>
				<stop  offset="1" style="stop-color:#F2F2F2"/>
			</linearGradient>
			<rect x="449" y="73" clip-path="url(#SVGID_2_)" fill="url(#SVGID_5_)" width="24" height="474"/>
			<linearGradient id="SVGID_6_" gradientUnits="userSpaceOnUse" x1="627.5039" y1="378.6211" x2="443.0131" y2="200.1293">
				<stop  offset="0" style="stop-color:#575581;stop-opacity:0"/>
				<stop  offset="1" style="stop-color:#130030"/>
			</linearGradient>
			<polygon clip-path="url(#SVGID_2_)" fill="url(#SVGID_6_)" points="623.066,404.09 496,547 496,73 617.955,73.775 			"/>
			<linearGradient id="SVGID_7_" gradientUnits="userSpaceOnUse" x1="778.4932" y1="125.9297" x2="538.5059" y2="-40.562">
				<stop  offset="0" style="stop-color:#EE782C;stop-opacity:0"/>
				<stop  offset="1" style="stop-color:#EE782C"/>
			</linearGradient>
			<polygon opacity="0.6" clip-path="url(#SVGID_2_)" fill="url(#SVGID_7_)" points="875.049,219.104 573.395,306.1 568.191,73 
				1167,73 			"/>
			<linearGradient id="SVGID_8_" gradientUnits="userSpaceOnUse" x1="944.8643" y1="130.7266" x2="820.6447" y2="44.549">
				<stop  offset="0" style="stop-color:#EE782C;stop-opacity:0"/>
				<stop  offset="1" style="stop-color:#EE782C"/>
			</linearGradient>
			<polygon opacity="0.6" clip-path="url(#SVGID_2_)" fill="url(#SVGID_8_)" points="957.547,241.603 855.552,280.601 857.052,73 
				1167,73 			"/>
			<polygon clip-path="url(#SVGID_2_)" fill="#474473" points="1073.327,214.785 448,501 295,771 300,894 1163,894 1163,215 			"/>
			<polygon clip-path="url(#SVGID_2_)" fill="#42395D" points="1074.327,229.785 449,516 301,801 301,909 1164,909 1164,230 			"/>
			<linearGradient id="SVGID_9_" gradientUnits="userSpaceOnUse" x1="1016.1484" y1="590.6533" x2="1250.1483" y2="454.6534">
				<stop  offset="0" style="stop-color:#575581;stop-opacity:0"/>
				<stop  offset="1" style="stop-color:#130030"/>
			</linearGradient>
			<polygon clip-path="url(#SVGID_2_)" fill="url(#SVGID_9_)" points="1074.327,229.785 449,516 301,801 301,909 1164,909 1164,230 
							"/>
			<polygon clip-path="url(#SVGID_2_)" fill="#342E4F" points="445.018,726.242 449,516 301,801 301,909 1164,909 1164,230 			"/>
			<linearGradient id="SVGID_10_" gradientUnits="userSpaceOnUse" x1="625.8721" y1="756.9365" x2="416.8264" y2="440.9919">
				<stop  offset="0" style="stop-color:#575581;stop-opacity:0"/>
				<stop  offset="1" style="stop-color:#130030"/>
			</linearGradient>
			<polygon clip-path="url(#SVGID_2_)" fill="url(#SVGID_10_)" points="426.572,724.279 419.838,572.157 301,801 301,909 
				966.545,867.071 796,371 			"/>
			<polygon clip-path="url(#SVGID_2_)" fill="#474473" points="1167,236 1167,921 438.57,921 383,814 383,725.51 457,643 587,643 
				587,524 587.23,524 587.25,524.25 759.94,528 760,528 760,446.03 916,437 916,342.1 916.28,342.03 1046,310 1046,241 			"/>
			<linearGradient id="SVGID_11_" gradientUnits="userSpaceOnUse" x1="770.4951" y1="511.3838" x2="948.4949" y2="1049.3831">
				<stop  offset="0" style="stop-color:#575581;stop-opacity:0"/>
				<stop  offset="1" style="stop-color:#130030"/>
			</linearGradient>
			<polygon clip-path="url(#SVGID_2_)" fill="url(#SVGID_11_)" points="1167,236 1167,921 438.57,921 383,814 383,725.51 457,643 
				587,643 587,524 587.23,524 587.25,524.25 759.94,528 760,528 760,446.03 916,437 916,342.1 916.28,342.03 1046,310 1046,241 			
				"/>
			<polygon clip-path="url(#SVGID_2_)" fill="#6470A1" points="1167,712.09 1167,812.12 383,725.51 457,643 587,643 			"/>
			<linearGradient id="SVGID_12_" gradientUnits="userSpaceOnUse" x1="844.4268" y1="726.7842" x2="970.42" y2="729.7842">
				<stop  offset="0" style="stop-color:#575581;stop-opacity:0"/>
				<stop  offset="1" style="stop-color:#130030"/>
			</linearGradient>
			<polygon clip-path="url(#SVGID_2_)" fill="url(#SVGID_12_)" points="1167,712.09 1167,812.12 383,725.51 457,643 587,643 			"/>
			<polygon opacity="0.5" clip-path="url(#SVGID_2_)" fill="#150031" points="696.697,762.856 803,816.112 803,773.846 			"/>
			<path clip-path="url(#SVGID_2_)" fill="#C8D5C2" d="M912.783,731.578l-146.256,57.027l-10.251-3.744l-87.03-31.814l113.101-47.07
				l11.017-4.589c0,0,0,0,15.43,2.684C824.225,706.755,912.783,731.578,912.783,731.578z"/>
			<linearGradient id="SVGID_13_" gradientUnits="userSpaceOnUse" x1="756.2764" y1="744.9966" x2="912.7832" y2="744.9966">
				<stop  offset="0" style="stop-color:#575581;stop-opacity:0"/>
				<stop  offset="1" style="stop-color:#575581"/>
			</linearGradient>
			<path opacity="0.2" clip-path="url(#SVGID_2_)" fill="url(#SVGID_13_)" d="M912.783,731.578l-146.256,57.027l-10.251-3.744
				c33.571-20.207,49.163-49.029,49.163-49.029c6.709-23.71-23.093-29.855-23.093-29.855l11.017-4.589c0,0,0,0,15.43,2.684
				C824.225,706.755,912.783,731.578,912.783,731.578z"/>
			<path clip-path="url(#SVGID_2_)" fill="#F2EDD7" d="M836.972,727.553l-41.597,24.152c0,0,47.635,6.039,59.04,11.406
				s33.545,9.393,33.545,9.393l14.76,4.025l27.614-24.488L836.972,727.553z"/>
			<polygon clip-path="url(#SVGID_2_)" fill="#6470A1" points="829.146,740.748 821.095,744.996 885.054,763.111 889.079,757.297 
							"/>
			<polygon clip-path="url(#SVGID_2_)" fill="#6470A1" points="871.188,740.748 866.268,747.009 898.92,755.955 903.392,752.041 			
				"/>
			<polygon clip-path="url(#SVGID_2_)" fill="#4A4F28" points="795.375,751.705 825.97,765.428 841.593,759.336 			"/>
			<g clip-path="url(#SVGID_2_)">
				<g>
					<path fill="#F2EDD7" d="M772.936,723.167c-12.913-4.246-35.681-0.163-41.326,13.88c-2.475,6.158,2.375,12.853,6.631,16.713
						c5.189,4.71,11.815,6.306,18.629,6.159c12.086-0.259,31.96-2.446,37.485-15.074C800.341,731.162,781,723.089,771,723.089
						c-4,0-4,4.478,0,4.478c10,0,29.11,10.042,15.492,20.47c-7.281,5.576-19.115,6.75-27.934,7.337
						c-9.324,0.621-25.234-4.97-22.551-17.14c1.323-6.01,11.06-9.068,16.013-10.623c6.441-2.022,13.329-2.235,19.746-0.125
						C774.517,728.389,775.665,724.066,772.936,723.167L772.936,723.167z"/>
				</g>
				<g>
					<path fill="#F2EDD7" d="M754.989,732.923c6.303,8.576,16.236,12.071,26.402,8.491c2.706-0.954,1.541-5.278-1.188-4.317
						c-8.14,2.865-16.193,0.583-21.352-6.433C757.163,728.363,753.273,730.592,754.989,732.923L754.989,732.923z"/>
				</g>
				<g>
					<path fill="#F2EDD7" d="M748,744.478c0,0,1-4.476,0-4.476C744,740.002,744,744.478,748,744.478
						C748,744.478,744,744.478,748,744.478z"/>
				</g>
				<g>
					<path fill="#F2EDD7" d="M760,749.453c0,0,4-4.478,0-4.478C758,744.976,758,749.453,760,749.453
						C760,749.453,758,749.453,760,749.453z"/>
				</g>
			</g>
			<polygon clip-path="url(#SVGID_2_)" fill="#6470A1" points="1167,621.01 1167,652.06 587.135,524.48 587,524.47 587,524 
				587.135,524.25 759.942,528 			"/>
			<polygon clip-path="url(#SVGID_2_)" fill="#6470A1" points="383,814 1167,845.44 1167,921 438.57,921 			"/>
			<linearGradient id="SVGID_14_" gradientUnits="userSpaceOnUse" x1="702.4531" y1="856.9258" x2="1020.4375" y2="874.9248">
				<stop  offset="0" style="stop-color:#575581;stop-opacity:0"/>
				<stop  offset="1" style="stop-color:#130030"/>
			</linearGradient>
			<polygon clip-path="url(#SVGID_2_)" fill="url(#SVGID_14_)" points="383,814 1167,845.44 1167,921 432.917,855.075 			"/>
			<linearGradient id="SVGID_15_" gradientUnits="userSpaceOnUse" x1="754.1006" y1="871.145" x2="1315.0723" y2="1049.6362">
				<stop  offset="0" style="stop-color:#F2F2F2;stop-opacity:0"/>
				<stop  offset="1" style="stop-color:#F2F2F2"/>
			</linearGradient>
			<polygon clip-path="url(#SVGID_2_)" fill="url(#SVGID_15_)" points="755.458,844.102 1002.544,864.07 1167,921 432.917,855.075 
							"/>
			<polygon opacity="0.5" clip-path="url(#SVGID_2_)" fill="#150031" points="862.544,585.074 857,675.162 602.7,749.682 
				573.974,821.658 496.377,876 386,853 383,725.51 411.73,693.352 450.588,650.149 801.136,458.471 864.144,477.526 879,552.377 
							"/>
			<linearGradient id="SVGID_16_" gradientUnits="userSpaceOnUse" x1="601.4678" y1="657.4692" x2="416.9766" y2="616.9711">
				<stop  offset="0" style="stop-color:#575581;stop-opacity:0"/>
				<stop  offset="1" style="stop-color:#130030"/>
			</linearGradient>
			<polygon clip-path="url(#SVGID_2_)" fill="url(#SVGID_16_)" points="862.544,585.074 857,675.162 602.7,749.682 573.974,821.658 
				496.377,876 386,853 383,725.51 411.73,693.352 450.588,650.149 801.136,458.471 864.144,477.526 879,552.377 			"/>
			<polygon clip-path="url(#SVGID_2_)" fill="#6470A1" points="1167,538.35 1167,569.12 760,446.03 916,437 			"/>
			<linearGradient id="SVGID_17_" gradientUnits="userSpaceOnUse" x1="904.583" y1="430.7285" x2="828.0864" y2="640.7194">
				<stop  offset="0" style="stop-color:#F2F2F2;stop-opacity:0"/>
				<stop  offset="1" style="stop-color:#F2F2F2"/>
			</linearGradient>
			<polygon clip-path="url(#SVGID_2_)" fill="url(#SVGID_17_)" points="1025.239,481.109 948.546,467.416 760,446.03 916,437 			"/>
			<polygon clip-path="url(#SVGID_2_)" fill="#6470A1" points="1167,351.74 1167,462.39 916.29,342.09 916.28,342.03 1046,310 
				1046,304.57 1046.23,304.56 			"/>
			<linearGradient id="SVGID_18_" gradientUnits="userSpaceOnUse" x1="1022.998" y1="351.5947" x2="1261.4854" y2="323.0963">
				<stop  offset="0" style="stop-color:#F2F2F2;stop-opacity:0"/>
				<stop  offset="1" style="stop-color:#F2F2F2"/>
			</linearGradient>
			<polygon clip-path="url(#SVGID_2_)" fill="url(#SVGID_18_)" points="1167,351.74 1155.536,380.032 916.29,342.09 916.28,342.03 
				1046,310 1046,304.57 1046.23,304.56 			"/>
			<g clip-path="url(#SVGID_2_)">
				<path fill="#4A4F28" d="M1065,833c-0.24,0.3-0.5,0.59-0.77,0.86c-16.671,16.84-82.181-33.73-99.9-46.19
					c-18-12.67-20.66-6.67-44-13.34c-23.33-6.66-46-31.33-49.33-44.66c-3.33-13.34-18.67-46.67-34-58.67s-30.67-29.33-26-42
					c0.28-0.77,0.68-1.45,1.18-2.04c7.7-9.22,39.67,1.37,52.82,1.37c14,0,26-6,37.33,0c11.34,6,18.67,4.67,58,14.77
					c39.34,10.101,60.67,65.23,60.67,65.23C1038.33,723.67,1080.33,813.67,1065,833z"/>
				<path fill="#2F3025" d="M1065,833c-0.24,0.3-0.5,0.59-0.77,0.86C1026.08,767.8,911.59,689.64,887.06,678.23
					c-16.869-7.851-52.63-34.301-74.88-51.271c7.7-9.22,39.67,1.37,52.82,1.37c14,0,26-6,37.33,0c11.34,6,18.67,4.67,58,14.77
					c39.34,10.101,60.67,65.23,60.67,65.23C1038.33,723.67,1080.33,813.67,1065,833z"/>
				<linearGradient id="SVGID_19_" gradientUnits="userSpaceOnUse" x1="953.9834" y1="727.2754" x2="877.4871" y2="601.2809">
					<stop  offset="0" style="stop-color:#575E19;stop-opacity:0"/>
					<stop  offset="1" style="stop-color:#575E19"/>
				</linearGradient>
				<path fill="url(#SVGID_19_)" d="M1065,833c-0.24,0.3-0.5,0.59-0.77,0.86C1026.08,767.8,911.59,689.64,887.06,678.23
					c-16.869-7.851-52.63-34.301-74.88-51.271c7.7-9.22,39.67,1.37,52.82,1.37c14,0,26-6,37.33,0c11.34,6,18.67,4.67,58,14.77
					c39.34,10.101,60.67,65.23,60.67,65.23C1038.33,723.67,1080.33,813.67,1065,833z"/>
				<linearGradient id="SVGID_20_" gradientUnits="userSpaceOnUse" x1="1005.6338" y1="566.5566" x2="1138.4307" y2="566.5566">
					<stop  offset="0" style="stop-color:#EE782C;stop-opacity:0"/>
					<stop  offset="1" style="stop-color:#EE782C"/>
				</linearGradient>
				<path fill="url(#SVGID_20_)" d="M1064.722,703.221c-13.157,4.086-26.229,5.728-32.393,6.802c0,0,1.509-26.401-6.557-39.893
					c-8.07-13.485-30.407-66.028-14.639-85.901c15.772-19.87,35.945-28.091,37.97-47.979c2.027-19.891-5.859-45.025,17.344-59.814
					c23.204-14.798,37.175-21.134,40.486-33.369c2.834-10.513,4.522-19.109,9.965-19.918c0.896-0.125,1.883-0.052,3.001,0.261
					c7.924,2.22,18.885,26.067,12.536,54.038c-6.349,27.971-6.19,55.99-0.142,71.828s10.964,48.251-2.223,69.685
					c-13.186,21.435-19.417,41.641-32.604,63.084C1090.897,692.718,1077.772,699.17,1064.722,703.221z"/>
				<path fill="none" stroke="#342E4F" stroke-width="2" stroke-miterlimit="10" d="M1070.933,472.351c0,0-16.22,113.147,0,175.734
					c0,0-0.9-79.679,17.099-132.085"/>
				<path fill="#69700A" d="M1078.88,725.84c-9.81,15.66-21.67,28.76-27,35.24c0,0-21.55-28.17-41.55-34.84
					c-20-6.66-88.66-40.57-90-74.57c-1.33-34,12-60-3.33-82s-45.33-40.67-34.66-76c10.66-35.34,19.33-54,12-69.34
					c-6.31-13.17-12.109-23.39-7.28-28.97c0.801-0.91,1.87-1.7,3.28-2.36c10-4.67,42,10,60,44S993,499.359,1013,510.18
					s53.34,39.49,58.67,72.82s16.66,59.33,22,92.67C1096.32,692.27,1088.61,710.31,1078.88,725.84z"/>
				<path fill="#A7A700" d="M1078.88,725.84c-13.13-21.84-29.01-46.21-41.84-59.76c-27-28.49-69-68.99-93-150.08
					c-15.03-50.77-40.23-94.81-56.98-120.64c0.801-0.91,1.87-1.7,3.28-2.36c10-4.67,42,10,60,44S993,499.359,1013,510.18
					s53.34,39.49,58.67,72.82s16.66,59.33,22,92.67C1096.32,692.27,1088.61,710.31,1078.88,725.84z"/>
				<path fill="#A7A700" d="M1078.88,725.84c-13.13-21.84-29.01-46.21-41.84-59.76c-27-28.49-69-68.99-93-150.08
					c-15.03-50.77-40.23-94.81-56.98-120.64c0.801-0.91,1.87-1.7,3.28-2.36c10-4.67,42,10,60,44S993,499.359,1013,510.18
					s53.34,39.49,58.67,72.82s16.66,59.33,22,92.67C1096.32,692.27,1088.61,710.31,1078.88,725.84z"/>
				<linearGradient id="SVGID_21_" gradientUnits="userSpaceOnUse" x1="1023.1992" y1="587.0737" x2="1125.1936" y2="690.5691">
					<stop  offset="0" style="stop-color:#575E19;stop-opacity:0"/>
					<stop  offset="1" style="stop-color:#575E19"/>
				</linearGradient>
				<path fill="url(#SVGID_21_)" d="M1078.88,725.84c-13.13-21.84-29.01-46.21-41.84-59.76c-27-28.49-69-68.99-93-150.08
					c-1.82-6.13-3.78-12.17-5.86-18.08c-3.16-8.98-6.58-17.69-10.16-26.06c-3.75-8.8-7.68-17.22-11.64-25.17
					c-3.689-7.41-7.41-14.41-11.05-20.95c-6.55-11.77-12.85-22.02-18.271-30.38c0.801-0.91,1.87-1.7,3.28-2.36
					c8.78-4.1,34.54,6.72,52.87,32.46c2.54,3.56,4.94,7.41,7.13,11.54c2.641,4.98,5.41,9.84,8.3,14.53
					c5.48,8.93,11.351,17.29,17.36,24.81c12.44,15.58,25.49,27.61,37,33.84c1.85,1,3.81,2.15,5.85,3.45
					c3.16,2.011,6.53,4.351,9.971,7.01c6.319,4.86,12.89,10.75,18.949,17.431c3.91,4.31,7.61,8.939,10.9,13.85
					c5.84,8.7,10.38,18.22,12.47,28.2c0.2,0.96,0.38,1.92,0.53,2.88c1.1,6.84,2.44,13.37,3.94,19.71
					c1.939,8.25,4.13,16.18,6.35,24.09c1.97,7.04,3.96,14.061,5.82,21.25c1.35,5.26,2.63,10.601,3.77,16.12
					c0.78,3.75,1.49,7.57,2.12,11.5C1096.32,692.27,1088.61,710.31,1078.88,725.84z"/>
				<linearGradient id="SVGID_22_" gradientUnits="userSpaceOnUse" x1="905.3301" y1="438.3154" x2="958.6396" y2="438.3154">
					<stop  offset="0" style="stop-color:#F2F2F2;stop-opacity:0"/>
					<stop  offset="1" style="stop-color:#F2F2F2"/>
				</linearGradient>
				<path fill="url(#SVGID_22_)" d="M958.64,451.53c-6.76-0.91-13.5-1.74-20.199-2.52c-7.07-0.82-14.49-1.55-22.061-2.32
					c-3.689-7.41-7.41-14.41-11.05-20.95c12.85-0.82,25.78-0.78,37.88-0.28c2.54,3.56,4.94,7.41,7.13,11.54
					C952.98,441.98,955.75,446.84,958.64,451.53z"/>
				<linearGradient id="SVGID_23_" gradientUnits="userSpaceOnUse" x1="928.0195" y1="496.25" x2="1028.8203" y2="496.25">
					<stop  offset="0" style="stop-color:#F2F2F2;stop-opacity:0"/>
					<stop  offset="1" style="stop-color:#F2F2F2"/>
				</linearGradient>
				<path fill="url(#SVGID_23_)" d="M1028.82,520.64c-21.13-5.45-42.261-10.93-63.351-16.62c-9.01-2.439-18.13-4.41-27.29-6.1
					c-3.16-8.98-6.58-17.69-10.16-26.06c1.271,0.13,2.54,0.26,3.811,0.39c14.67,1.51,29.41,2.84,44.17,4.09
					c12.44,15.58,25.49,27.61,37,33.84c1.85,1,3.81,2.15,5.85,3.45C1022.01,515.641,1025.38,517.98,1028.82,520.64z"/>
				<linearGradient id="SVGID_24_" gradientUnits="userSpaceOnUse" x1="1169.5898" y1="564.4751" x2="1172.0303" y2="564.4751">
					<stop  offset="0" style="stop-color:#F2F2F2;stop-opacity:0"/>
					<stop  offset="1" style="stop-color:#F2F2F2"/>
				</linearGradient>
				<path fill="url(#SVGID_24_)" d="M1172.03,559.59l-1.49,10.5c0.01-3.689-0.33-7.439-0.95-11.229
					C1170.4,559.1,1171.22,559.34,1172.03,559.59z"/>
				<path fill="none" stroke="#ECE8C8" stroke-width="2" stroke-miterlimit="10" d="M930.539,530.741
					c0,0,43.799,125.183,140.394,206.759"/>
				<path fill="none" stroke="#ECE8C8" stroke-width="2" stroke-miterlimit="10" d="M899.041,725.84
					c0,0,109.722,2.751,179.354,76.492"/>
				<g>
					<linearGradient id="SVGID_25_" gradientUnits="userSpaceOnUse" x1="986.3779" y1="526.3271" x2="1047.7695" y2="526.3271">
						<stop  offset="0" style="stop-color:#EE782C;stop-opacity:0"/>
						<stop  offset="1" style="stop-color:#EE782C"/>
					</linearGradient>
					<path fill="url(#SVGID_25_)" d="M992.15,534.85c-10.65-3.8-4.58-8.859,2.34-12.52c7.52-3.98,15.76-6.75,24.359-8.7
						c8.99,5.69,19.561,14.13,28.92,24.44C1029.28,538.97,1008.52,540.7,992.15,534.85z"/>
					<linearGradient id="SVGID_26_" gradientUnits="userSpaceOnUse" x1="997.5996" y1="566.2061" x2="1071.1396" y2="566.2061">
						<stop  offset="0" style="stop-color:#EE782C;stop-opacity:0"/>
						<stop  offset="1" style="stop-color:#EE782C"/>
					</linearGradient>
					<path fill="url(#SVGID_26_)" d="M997.6,573c3.15-7.86,13.96-11.58,21.261-14.65c12.779-5.38,26.279-6.05,39.81-6.43
						c5.84,8.7,10.38,18.22,12.47,28.2c-8.439,0.04-16.979,0.56-24.92,0.21C1035.46,579.85,1005.41,583.21,997.6,573z"/>
					<linearGradient id="SVGID_27_" gradientUnits="userSpaceOnUse" x1="1015.7646" y1="614.7549" x2="1081.96" y2="614.7549">
						<stop  offset="0" style="stop-color:#EE782C;stop-opacity:0"/>
						<stop  offset="1" style="stop-color:#EE782C"/>
					</linearGradient>
					<path fill="url(#SVGID_27_)" d="M1074.05,626.48c-13.229-0.5-26.38,0.22-39.45-1.33c-4.85-0.57-11.46-0.4-15.67-3.341
						c-8.91-6.21,3.181-10.579,9.431-12.739c14.989-5.19,31.42-5.471,47.25-6.36c1.939,8.25,4.13,16.18,6.35,24.09
						C1077.58,626.58,1074.59,626.5,1074.05,626.48z"/>
					<linearGradient id="SVGID_28_" gradientUnits="userSpaceOnUse" x1="1061.124" y1="656.1099" x2="1091.5498" y2="656.1099">
						<stop  offset="0" style="stop-color:#EE782C;stop-opacity:0"/>
						<stop  offset="1" style="stop-color:#EE782C"/>
					</linearGradient>
					<path fill="url(#SVGID_28_)" d="M1091.55,664.17c-14.54-1.21-33.87-3.76-29.899-9.689c3.34-4.98,16.399-6.04,26.13-6.431
						C1089.13,653.31,1090.41,658.65,1091.55,664.17z"/>
				</g>
			</g>
			<path opacity="0.3" clip-path="url(#SVGID_2_)" fill="#150031" d="M619.395,289.524c0,0,14.271-28.843,43.955-25.011
				s60.649,42.167,80.702,48.104s40.612,12.583,44.974,26.044s4.555,13.472,4.555,13.472l9.42,92.389l-29.056,1.658l-111.696-23.906
				L619.395,289.524z"/>
			<radialGradient id="SVGID_29_" cx="689.8281" cy="497.8818" r="444.8389" gradientUnits="userSpaceOnUse">
				<stop  offset="0.749" style="stop-color:#575581;stop-opacity:0"/>
				<stop  offset="0.7966" style="stop-color:#534F7C;stop-opacity:0.1895"/>
				<stop  offset="0.8574" style="stop-color:#46406D;stop-opacity:0.4316"/>
				<stop  offset="0.9253" style="stop-color:#312554;stop-opacity:0.7024"/>
				<stop  offset="0.998" style="stop-color:#140131;stop-opacity:0.992"/>
				<stop  offset="1" style="stop-color:#130030"/>
			</radialGradient>
			<circle opacity="0.7" clip-path="url(#SVGID_2_)" fill="url(#SVGID_29_)" cx="689.829" cy="497.883" r="444.838"/>
		</g>
		<g>
			<path fill="#AF4F55" d="M775.581,201.67c-3.933-1.311-21.438-1.465-39.856-1.234C712.114,200.732,687,201.67,687,201.67v-97.115
				l13.88-0.707l74.919-3.779c0,0-0.758,36.605-0.013,55.28C776.532,174.024,775.581,201.67,775.581,201.67z"/>
			<path fill="#130030" d="M757.689,162H776v7.963c0,0,28.545-8.568,33.686-7.712c5.143,0.857,23.913-0.175,23.913-0.175
				l-28.314-11.332L757.689,162z"/>
			<path fill="#AE5E6C" d="M834,56.744v105.327c0,0-9.262-0.475-18.234-2.185c-2.273-0.424-4.656-0.938-6.777-1.543
				c-0.256-0.077-0.586-0.141-0.868-0.206c-4.55-0.964-13.257-0.565-22.126,0.27c-13.648,1.311-27.725,3.663-27.725,3.663
				s1.306-19.42-0.006-31.373c-1.299-11.954-1.573-77.695-1.573-77.695l29.277,1.426l25.743,1.247l4.055,0.193L834,56.744z"/>
			<linearGradient id="SVGID_30_" gradientUnits="userSpaceOnUse" x1="687" y1="152.7593" x2="735.7246" y2="152.7593">
				<stop  offset="0" style="stop-color:#575581;stop-opacity:0"/>
				<stop  offset="1" style="stop-color:#575581"/>
			</linearGradient>
			<path fill="url(#SVGID_30_)" d="M735.725,200.436C712.114,200.732,687,201.67,687,201.67v-97.115l13.88-0.707
				C703.979,125.055,714.439,184.576,735.725,200.436z"/>
			<linearGradient id="SVGID_31_" gradientUnits="userSpaceOnUse" x1="793.7832" y1="59.2358" x2="806.3145" y2="177.1582">
				<stop  offset="0" style="stop-color:#575581;stop-opacity:0"/>
				<stop  offset="1" style="stop-color:#575581"/>
			</linearGradient>
			<path fill="url(#SVGID_31_)" d="M811.727,55.676l-3.641,102.461c-4.551-0.964-13.086-0.565-22.086,0.27V54.429L811.727,55.676z"
				/>
			<polygon fill="#A7A10F" points="775.811,101.843 778.181,123.693 824,125.942 824,96.702 			"/>
			<linearGradient id="SVGID_32_" gradientUnits="userSpaceOnUse" x1="819.499" y1="56.5498" x2="832.0304" y2="174.473">
				<stop  offset="0" style="stop-color:#575581;stop-opacity:0"/>
				<stop  offset="1" style="stop-color:#575581"/>
			</linearGradient>
			<path fill="url(#SVGID_32_)" d="M834,56.744v105.327c0,0-10-0.475-18-2.185V55.869L834,56.744z"/>
			<linearGradient id="SVGID_33_" gradientUnits="userSpaceOnUse" x1="698" y1="123.8477" x2="737" y2="123.8477">
				<stop  offset="0" style="stop-color:#F2F2F2;stop-opacity:0"/>
				<stop  offset="1" style="stop-color:#F2F2F2"/>
			</linearGradient>
			<polygon fill="url(#SVGID_33_)" points="698,115.981 698,133 737,133 737,114.696 			"/>
			<linearGradient id="SVGID_34_" gradientUnits="userSpaceOnUse" x1="772" y1="83.5" x2="794.9629" y2="83.5">
				<stop  offset="0" style="stop-color:#F2F2F2;stop-opacity:0"/>
				<stop  offset="1" style="stop-color:#F2F2F2"/>
			</linearGradient>
			<polygon fill="url(#SVGID_34_)" points="772,78 772,89 794.963,89 793.355,78 			"/>
			<polyline fill="none" stroke="#ECE8C8" stroke-width="2" stroke-miterlimit="10" points="700.006,148.426 703.709,142 740,142 
							"/>
			<polyline fill="none" stroke="#ECE8C8" stroke-width="2" stroke-miterlimit="10" points="700.006,162.426 703.709,156 740,156 
							"/>
			<polyline fill="none" stroke="#ECE8C8" stroke-width="2" stroke-miterlimit="10" points="700.006,173.427 703.709,167 740,167 
							"/>
		</g>
		<g>
			<path fill="#DE5E50" d="M642,456.534c0,0-76.71-78.905-96.516-60.2c-19.805,18.705-45.42,34.894-44.319,60.2
				c1.1,25.307,14.304,149.638,9.902,160.641s-17.604,16.504-33.009,17.604c-15.403,1.1-31.907,11.003-33.008,17.604
				s25.308,8.07,31.175,6.603c5.868-1.468,32.275-4.401,41.811-2.935s30.257,2.2,33.466-6.602c3.21-8.802,1.192-20.539,0-35.209
				c-1.191-14.67,5.411-60.883,8.345-90.956c2.934-30.074,13.937-61.616,13.937-61.616L642,456.534z"/>
			<linearGradient id="SVGID_35_" gradientUnits="userSpaceOnUse" x1="498.6143" y1="521.1997" x2="570.6143" y2="562.5327">
				<stop  offset="0" style="stop-color:#575581;stop-opacity:0"/>
				<stop  offset="1" style="stop-color:#130030"/>
			</linearGradient>
			<path fill="url(#SVGID_35_)" d="M642,456.534c0,0-76.71-78.905-96.516-60.2c-19.805,18.705-45.42,34.894-44.319,60.2
				c1.1,25.307,14.304,149.638,9.902,160.641s-17.604,16.504-33.009,17.604c-15.403,1.1-31.907,11.003-33.008,17.604
				s25.308,8.07,31.175,6.603c5.868-1.468,32.275-4.401,41.811-2.935s30.257,2.2,33.466-6.602c3.21-8.802,1.192-20.539,0-35.209
				c-1.191-14.67,5.411-60.883,8.345-90.956c2.934-30.074,13.937-61.616,13.937-61.616L642,456.534z"/>
			<path fill="#EB8300" d="M545,356c0,0-13,41,13,64s36,34,49,13s32-25,47-22s37-19,40-36s-37-26-54-45S566,304,545,356z"/>
			<linearGradient id="SVGID_36_" gradientUnits="userSpaceOnUse" x1="541.75" y1="380.0322" x2="694.1602" y2="380.0322">
				<stop  offset="0" style="stop-color:#575581;stop-opacity:0"/>
				<stop  offset="1" style="stop-color:#130030"/>
			</linearGradient>
			<path fill="url(#SVGID_36_)" d="M545,356c0,0-13,41,13,64s36,34,49,13s32-25,47-22s37-19,40-36s-37-26-54-45S566,304,545,356z"/>
			<path fill="#E46832" d="M629.896,493.943c0,0-99.024-99.024-118.829-80.32c-19.806,18.705-23.106,55.014-22.006,80.32
				c1.101,25.307,14.304,149.638,9.902,160.641c-4.4,11.003-17.604,16.504-33.008,17.604c-15.404,1.101-31.908,11.003-33.009,17.604
				c-1.1,6.602,25.308,8.07,31.176,6.603c5.867-1.468,32.275-4.401,41.811-2.935s30.256,2.201,33.466-6.602
				c3.209-8.802,1.191-20.539,0-35.209s14.947-55.748,17.881-85.822c2.933-30.074,4.399-66.749,4.399-66.749L629.896,493.943z"/>
			<linearGradient id="SVGID_37_" gradientUnits="userSpaceOnUse" x1="495.9727" y1="589.4897" x2="630.965" y2="406.5002">
				<stop  offset="0" style="stop-color:#575581;stop-opacity:0"/>
				<stop  offset="1" style="stop-color:#130030"/>
			</linearGradient>
			<path fill="url(#SVGID_37_)" d="M629.9,493.939l-44.33,3.34l-23.891,1.801c0,0-1.47,36.67-4.399,66.75
				c-2.931,30.07-19.07,71.15-17.88,85.82c1.189,14.67,3.21,26.409,0,35.21c-1.141,3.14-4.511,5.06-8.801,6.18
				c-7.76,2.01-18.529,1.37-24.67,0.42c-9.529-1.47-35.939,1.47-41.81,2.94c-5.87,1.46-32.271-0.011-31.17-6.61
				c1.1-6.6,17.6-16.5,33.01-17.6c15.4-1.101,28.6-6.601,33-17.61c4.41-11-8.8-135.33-9.9-160.641
				c-1.1-25.299,2.2-61.609,22.011-80.319C530.87,394.92,629.9,493.939,629.9,493.939z"/>
			<linearGradient id="SVGID_38_" gradientUnits="userSpaceOnUse" x1="592.0947" y1="618.6279" x2="506.7617" y2="555.9619">
				<stop  offset="0" style="stop-color:#575581;stop-opacity:0"/>
				<stop  offset="1" style="stop-color:#575581"/>
			</linearGradient>
			<path fill="url(#SVGID_38_)" d="M585.57,497.279l-23.891,1.801c0,0-1.47,36.67-4.399,66.75c-2.931,30.07-19.07,71.15-17.88,85.82
				c1.189,14.67,3.21,26.409,0,35.21c-1.141,3.14-4.511,5.06-8.801,6.18c8.311-12.53-4.229-46.15,0.811-61.37
				C537.14,614.33,535,499,535,499c16-18,48.02-11.391,50-3.96C585.15,495.609,585.34,496.359,585.57,497.279z"/>
			<path fill="#6AA8C6" d="M816,528.33c0,48-19.33,122-31.33,134.67s-50,25.33-72,26.67c-22,1.33-72.67,8-91.34,0
				c-18.66-8-8,4.66-42.66-4.67c-25.05-6.74-24.34-31.92-22.02-50.66c0.89-7.2,2.02-13.45,2.02-17.34c0-14-10.67-22-24.189-34.67
				c-4.841-4.53-7.381-9.58-8.62-15.38c-2.24-10.41-0.29-23.26,0.14-39.95c0.63-24.641,3.66-48.09-2.27-57.84
				c-0.32-0.54-0.681-1.04-1.061-1.49c-6.38-7.54-13.76-27.16-16.01-43.9c-0.351-2.52-0.57-4.98-0.66-7.32
				c-0.67-17.89,17.33-22.78,39.48-20.12c22.159,2.67,35.189,26,41.85,40c6.67,14,39.34,60.67,30.63,47.13
				c-8.72-13.55-10.96-50.46-9.26-53.05c1.7-2.59,7.97-15.41,26.3-41.41s37.21-37.05,55-42c0,0,24.67-2.67,69,42
				S816,480.33,816,528.33z"/>
			<linearGradient id="SVGID_39_" gradientUnits="userSpaceOnUse" x1="701.2578" y1="510.2832" x2="425.2715" y2="633.2773">
				<stop  offset="0" style="stop-color:#575581;stop-opacity:0"/>
				<stop  offset="1" style="stop-color:#575581"/>
			</linearGradient>
			<path fill="url(#SVGID_39_)" d="M816,528.33c0,48-19.33,122-31.33,134.67s-50,25.33-72,26.67c-22,1.33-72.67,8-91.34,0
				c-18.66-8-8,4.66-42.66-4.67c-25.05-6.74-24.34-31.92-22.02-50.66c0.89-7.2,2.02-13.45,2.02-17.34c0-14-10.67-22-24.189-34.67
				c-4.841-4.53-7.381-9.58-8.62-15.38c-2.24-10.41-0.29-23.26,0.14-39.95c0.63-24.641,3.66-48.09-2.27-57.84
				c-0.32-0.54-0.681-1.04-1.061-1.49c-6.38-7.54-13.76-27.16-16.01-43.9c-0.351-2.52-0.57-4.98-0.66-7.32
				c-0.67-17.89,17.33-22.78,39.48-20.12c22.159,2.67,35.189,26,41.85,40c6.67,14,39.34,60.67,30.63,47.13
				c-8.72-13.55-10.96-50.46-9.26-53.05c1.7-2.59,7.97-15.41,26.3-41.41s37.21-37.05,55-42c0,0,24.67-2.67,69,42
				S816,480.33,816,528.33z"/>
			<linearGradient id="SVGID_40_" gradientUnits="userSpaceOnUse" x1="661.5898" y1="474.1616" x2="675.0899" y2="370.6667">
				<stop  offset="0" style="stop-color:#575581;stop-opacity:0"/>
				<stop  offset="1" style="stop-color:#575581"/>
			</linearGradient>
			<path fill="url(#SVGID_40_)" d="M816,528.33c0,48-19.33,122-31.33,134.67c-4.63,4.89-13.13,9.78-23.09,14.01
				c-15.85,6.74-35.4,11.84-48.91,12.66c-22,1.33-72.67,8-91.34,0c-18.66-8-8,4.66-42.66-4.67c-25.05-6.74-24.34-31.92-22.02-50.66
				c0.89-7.2,2.02-13.45,2.02-17.34c0-14-10.67-22-24.189-34.67c-4.841-4.53-7.381-9.58-8.62-15.38
				c-2.24-10.41-0.29-23.26,0.14-39.95c0.63-24.641,3.66-48.09-2.27-57.84c-0.32-0.54-0.681-1.04-1.061-1.49
				c-6.38-7.54-13.76-27.16-16.01-43.9c-0.351-2.52-0.57-4.98-0.66-7.32c-0.67-17.89,17.33-22.78,39.48-20.12
				c22.159,2.67,35.189,26,41.85,40c6.67,14,39.34,60.67,30.63,47.13c-8.72-13.55-10.96-50.46-9.26-53.05
				c1.7-2.59,7.97-15.41,26.3-41.41c7.39-10.49,14.88-18.54,22.34-24.75c11.04-9.17,22.05-14.3,32.66-17.25c0,0,24.67-2.67,69,42
				S816,480.33,816,528.33z"/>
			<linearGradient id="SVGID_41_" gradientUnits="userSpaceOnUse" x1="785.7598" y1="411.8877" x2="587.7701" y2="723.8711">
				<stop  offset="0" style="stop-color:#575581;stop-opacity:0"/>
				<stop  offset="1" style="stop-color:#575581"/>
			</linearGradient>
			<path fill="url(#SVGID_41_)" d="M816,528.33c0,48-19.33,122-31.33,134.67c-4.63,4.89-13.13,9.78-23.09,14.01
				c60.92-84.8,27.09-219.37,13.66-218.54c-14.311,0.88,6.81,62.12-21.24,54.51c-20.13-5.451-70.06-97.28-96.66-148.73
				c11.04-9.17,22.05-14.3,32.66-17.25c0,0,24.67-2.67,69,42S816,480.33,816,528.33z"/>
			<path fill="#6AA8C6" d="M581.2,495.04c-24.49-16.09-43.42-23.22-57.47-25.88c-0.32-0.54-0.681-1.04-1.061-1.49
				c-6.38-7.54-13.76-27.16-16.01-43.9C580.97,440.56,634.42,530.01,581.2,495.04z"/>
			<path fill="#6AA8C6" d="M704.42,642.08c-64.08,16.96-117.91,3.66-147.77-7.74c0.89-7.2,2.02-13.45,2.02-17.34
				c0-14-10.67-22-24.189-34.67c-4.841-4.53-7.381-9.58-8.62-15.38C599.96,616.83,704.42,642.08,704.42,642.08z"/>
			<linearGradient id="SVGID_42_" gradientUnits="userSpaceOnUse" x1="529.8467" y1="451.7314" x2="762.335" y2="561.2261">
				<stop  offset="0" style="stop-color:#575581;stop-opacity:0"/>
				<stop  offset="1" style="stop-color:#575581"/>
			</linearGradient>
			<path fill="url(#SVGID_42_)" d="M581.2,495.04c-24.49-16.09-43.42-23.22-57.47-25.88c-0.32-0.54-0.681-1.04-1.061-1.49
				c-6.38-7.54-13.76-27.16-16.01-43.9C580.97,440.56,634.42,530.01,581.2,495.04z"/>
			<linearGradient id="SVGID_43_" gradientUnits="userSpaceOnUse" x1="476.2441" y1="565.5439" x2="708.7324" y2="675.0386">
				<stop  offset="0" style="stop-color:#575581;stop-opacity:0"/>
				<stop  offset="1" style="stop-color:#575581"/>
			</linearGradient>
			<path fill="url(#SVGID_43_)" d="M704.42,642.08c-64.08,16.96-117.91,3.66-147.77-7.74c0.89-7.2,2.02-13.45,2.02-17.34
				c0-14-10.67-22-24.189-34.67c-4.841-4.53-7.381-9.58-8.62-15.38C599.96,616.83,704.42,642.08,704.42,642.08z"/>
			<path fill="#E46832" d="M583,481.668c0,0-19.334,26.666-23.334,34.666s-11.333,11.334-13.333,10.667s-18.748-19.25-24.374-22.625
				S497.832,487,494.333,481.668s-3.478-9.317-3.478-9.317s-10.522,12.749-8.522,27.366s3.661,18.765,12.497,31.024
				s18.943,26.696,26.799,39.145s18.037,29.115,30.704,29.115s66.001-60.827,77.667-78.747S583,481.668,583,481.668z"/>
			<linearGradient id="SVGID_44_" gradientUnits="userSpaceOnUse" x1="511.2041" y1="550.0483" x2="655.2001" y2="403.0523">
				<stop  offset="0" style="stop-color:#575581;stop-opacity:0"/>
				<stop  offset="1" style="stop-color:#575581"/>
			</linearGradient>
			<path fill="url(#SVGID_44_)" d="M630,520.25c-9.45,14.51-46.24,57.18-66.61,72.87c-4.779,3.68-8.649,5.88-11.06,5.88
				c-12.66,0-22.85-16.67-30.7-29.11c-7.86-12.449-17.96-26.89-26.8-39.149s-10.5-16.41-12.5-31.02
				c-0.59-4.341-0.08-8.521,0.939-12.24c2.391-8.831,7.591-15.13,7.591-15.13c0,0.13,0.029,4.08,3.47,9.32
				c3.5,5.33,22,19.33,27.63,22.71c3.05,1.83,9.37,8.13,14.83,13.62c3.83,3.84,7.24,7.29,8.81,8.53
				c0.011,0.02,0.03,0.029,0.04,0.029c0.311,0.24,0.54,0.391,0.69,0.44c2,0.67,9.34-2.67,13.34-10.67S583,481.67,583,481.67
				s6.57,2.311,14.87,6.061C614.38,495.189,637.77,508.32,630,520.25z"/>
			<linearGradient id="SVGID_45_" gradientUnits="userSpaceOnUse" x1="562.2236" y1="500.8574" x2="598.2217" y2="467.8584">
				<stop  offset="0" style="stop-color:#575581;stop-opacity:0"/>
				<stop  offset="1" style="stop-color:#130030"/>
			</linearGradient>
			<path fill="url(#SVGID_45_)" d="M630,520.25c-9.45,14.51-46.24,57.18-66.61,72.87c-32.29-24.22-72.72-92.81-80.12-105.64
				c2.391-8.831,7.591-15.13,7.591-15.13c0,0.13,0.029,4.08,3.47,9.32c3.5,5.33,22,19.33,27.63,22.71
				c3.05,1.83,9.37,8.13,14.83,13.62c2.24,3.3,5.14,6.19,8.81,8.53c0.011,0.02,0.03,0.029,0.04,0.029
				c0.23,0.16,0.46,0.301,0.69,0.44c23.38,14.17,40.93-13.54,51.54-39.27C614.38,495.189,637.77,508.32,630,520.25z"/>
			<path fill="#6AA8C6" d="M685.33,473.67C676,487,686.67,515,666.67,527c-15.7,9.42-33.04-0.46-48.15-12.88
				c-4.14-3.41-8.119-7.011-11.85-10.45C589.33,487.67,582,493,578.6,479c-3.399-14,12.07-30.67,19.391-36.19
				c7.319-5.52,29.34-46.48,29.34-46.48c11.05-6.56,24.24-1.32,36.06,7.76C674.4,412.54,684.21,424.32,690,433
				C702,451,694.67,460.33,685.33,473.67z"/>
			<linearGradient id="SVGID_46_" gradientUnits="userSpaceOnUse" x1="645.0586" y1="431.0337" x2="684.0566" y2="588.5259">
				<stop  offset="0" style="stop-color:#575581;stop-opacity:0"/>
				<stop  offset="1" style="stop-color:#575581"/>
			</linearGradient>
			<path fill="url(#SVGID_46_)" d="M685.33,473.67C676,487,686.67,515,666.67,527c-15.7,9.42-33.04-0.46-48.15-12.88
				c3.82-10.649,10.851-20.78,23.48-26.53c25.28-11.5,24.11-57.98,21.39-83.5C674.4,412.54,684.21,424.32,690,433
				C702,451,694.67,460.33,685.33,473.67z"/>
			<path fill="#F0F0C8" d="M800.67,407.86c-11.34,36.2-65.34,29.81-89.34,31.14s-36.66,21.33-55.33,19.33s-21-9.33-47.82-23.32
				c-26.189-13.65-38.91-72.49-39.489-75.24c1.97,11.31-0.061,25.25-10.03,33.23c-10,8-38.66,13.33-52.68-22.67
				c-3.7-9.51-3.86-19.67-1.86-29.81c5.58-28.27,28-56.45,37.63-70.19c2.75-3.92,6.19-6.91,9.9-9.16
				c13.909-8.5,31.68-6.84,31.68-6.84c29.02-9.67,65.82,19.02,85.09,38c3.311,3.26,6.1,6.23,8.25,8.67c14.66,16.67,42,28,78.66,38
				c15.54,4.24,28.1,10.76,36.54,19.62C803.33,370.65,807.2,387.01,800.67,407.86z"/>
			<path fill="#646195" d="M570.531,316.128l8.066,4.573L571.35,371H569C569,371,566.398,328.588,570.531,316.128z"/>
			<path fill="#565A8B" d="M641.456,528.417c0,0,48.357,114.934,133.784,141.759c0,0-10.173,5.578-16.24,7.898
				s-68.324-21.072-105.662-88.406c0,0-21.212-37.297-20.941-65.648C632.396,524.02,638.287,521.465,641.456,528.417z"/>
			<linearGradient id="SVGID_47_" gradientUnits="userSpaceOnUse" x1="673.5967" y1="587.6748" x2="603.597" y2="508.6752">
				<stop  offset="0" style="stop-color:#575581;stop-opacity:0"/>
				<stop  offset="1" style="stop-color:#130030"/>
			</linearGradient>
			<path fill="url(#SVGID_47_)" d="M641.456,528.417c0,0,48.357,114.934,133.784,141.759c0,0-10.173,5.578-16.24,7.898
				s-68.324-21.072-105.662-88.406c0,0-21.212-37.297-20.941-65.648C632.396,524.02,638.287,521.465,641.456,528.417z"/>
			<path fill="#E46832" d="M491.642,527.654c0,0-8.974,14.013-4.974,22.013s-0.871,10.628,4.974,18s9.693,9.999,13.693,9.333
				s0-8,0-8l1.777-9.333l-2.324-13.478L491.642,527.654z"/>
			<linearGradient id="SVGID_48_" gradientUnits="userSpaceOnUse" x1="485.6406" y1="552.377" x2="507.1123" y2="552.377">
				<stop  offset="0" style="stop-color:#575581;stop-opacity:0"/>
				<stop  offset="1" style="stop-color:#575581"/>
			</linearGradient>
			<path fill="url(#SVGID_48_)" d="M491.642,527.654c0,0-8.974,14.013-4.974,22.013s-0.871,10.628,4.974,18
				s9.693,9.999,13.693,9.333s0-8,0-8l1.777-9.333l-2.324-13.478L491.642,527.654z"/>
			<path fill="#150031" d="M703.6,730.99L588.82,730h-0.33l-11.09-4l12.55-7.5c0,0,105.609,1.875,111.5,3.125
				C707.33,722.885,703.6,730.99,703.6,730.99z"/>
			<linearGradient id="SVGID_49_" gradientUnits="userSpaceOnUse" x1="662.4033" y1="258.8755" x2="645.0693" y2="472.8763">
				<stop  offset="0" style="stop-color:#575581;stop-opacity:0"/>
				<stop  offset="1" style="stop-color:#575581"/>
			</linearGradient>
			<path opacity="0.2" fill="url(#SVGID_49_)" d="M800.67,407.86c-11.34,36.2-65.34,29.81-89.34,31.14s-36.66,21.33-55.33,19.33
				s-21-9.33-47.82-23.32c-26.189-13.65-38.91-72.49-39.489-75.24c1.97,11.31-0.061,25.25-10.03,33.23
				c-10,8-38.66,13.33-52.68-22.67c-3.7-9.51-3.86-19.67-1.86-29.81c2.59,9.99,9.03,19.26,21.74,25.81
				c36.189,18.67,43.51-44.9,43.51-44.9l9.229-0.73c0,0-0.27,26.97,11.07,54.97c11.33,28,42,28,71.32,14
				c29.33-14,44.01,13.33,88.01,18.66c32.16,3.9,42.74-25.38,42.87-49.71C803.33,370.65,807.2,387.01,800.67,407.86z"/>
			<path fill="#C8D5C2" d="M588.82,730h-0.33l-11.09-4l12.55-7.44C589.95,718.56,590.7,725,588.82,730z"/>
			<path fill="none" stroke="#ECE8C8" stroke-width="2" stroke-miterlimit="10" d="M680.248,720.567c0,0,2.248,5.761,0,10.222"/>
			<linearGradient id="SVGID_50_" gradientUnits="userSpaceOnUse" x1="568.8125" y1="275.5703" x2="714.3058" y2="290.5699">
				<stop  offset="0" style="stop-color:#F2F2F2;stop-opacity:0"/>
				<stop  offset="1" style="stop-color:#F2F2F2"/>
			</linearGradient>
			<path fill="url(#SVGID_50_)" d="M632.39,301.6c-20.659-16.5-33.33-13.5-64.199-15c-17.851-0.87-18.86-14.28-16.54-25.43
				c13.909-8.5,31.68-6.84,31.68-6.84c29.02-9.67,65.82,19.02,85.09,38C677.96,313.67,650.25,315.86,632.39,301.6z"/>
			<linearGradient id="SVGID_51_" gradientUnits="userSpaceOnUse" x1="664.9336" y1="348.2861" x2="727.5938" y2="348.2861">
				<stop  offset="0" style="stop-color:#F2F2F2;stop-opacity:0"/>
				<stop  offset="1" style="stop-color:#F2F2F2"/>
			</linearGradient>
			<path fill="url(#SVGID_51_)" d="M726.337,366.718c-4.836,7.891-22.221,6.035-38.829-4.145
				c-16.609-10.18-26.153-24.828-21.317-32.719s22.221-6.035,38.829,4.145C721.629,344.179,731.173,358.828,726.337,366.718z"/>
		</g>
		<g>
			<path fill="#B7B300" d="M1152.03,614c1.5,17.58-36.48,65.88-81.23,79.23c0,0-0.06-1.761-0.09-4.841
				c-0.15-16.5,0.771-70.93,18.33-96.29c20.84-30.1,38.99-33.84,46.49-41.42c6.66-6.739,12.13-14.09,19.569-10.109
				c0.94,0.5,1.92,1.189,2.931,2.08C1167.03,550.59,1150.53,596.42,1152.03,614z"/>
			<linearGradient id="SVGID_52_" gradientUnits="userSpaceOnUse" x1="1121.1816" y1="606.8682" x2="1170.5148" y2="532.201">
				<stop  offset="0" style="stop-color:#EE782C;stop-opacity:0"/>
				<stop  offset="1" style="stop-color:#EE782C"/>
			</linearGradient>
			<path fill="url(#SVGID_52_)" d="M1152.03,614c1.5,17.58-36.48,65.88-81.23,79.23c0,0-0.06-1.761-0.09-4.841
				c-0.15-16.5,0.771-70.93,18.33-96.29c20.84-30.1,38.99-33.84,46.49-41.42c6.66-6.739,12.13-14.09,19.569-10.109
				c0.94,0.5,1.92,1.189,2.931,2.08C1167.03,550.59,1150.53,596.42,1152.03,614z"/>
			<linearGradient id="SVGID_53_" gradientUnits="userSpaceOnUse" x1="1158.0303" y1="569.6626" x2="1068.0303" y2="729.6627">
				<stop  offset="0" style="stop-color:#575E19;stop-opacity:0"/>
				<stop  offset="1" style="stop-color:#575E19"/>
			</linearGradient>
			<path fill="url(#SVGID_53_)" d="M1157.09,578.56c-1.04,5.24-2.14,10.53-3.05,15.521c-0.521,2.86-0.99,5.61-1.35,8.2
				c-0.62,4.56-0.931,8.59-0.66,11.72c0.2,2.35-0.3,5.24-1.431,8.52c-7.33,21.33-41.02,59.15-79.8,70.711c0,0-0.06-1.761-0.09-4.841
				c5.17-18.399,23.99-45.88,39.11-68.029c4.33-6.341,8.35-12.24,11.66-17.37c2.13-3.3,3.97-6.29,5.399-8.86
				c0.86-1.53,1.57-2.91,2.12-4.13c0.69-1.54,1.47-3.2,2.33-4.97c6.51-13.511,17.229-32.86,23.77-44.46
				c0.94,0.5,1.92,1.189,2.931,2.08C1162.92,546.97,1160.28,562.48,1157.09,578.56z"/>
			<path fill="none" stroke="#ECE8C8" stroke-width="2" stroke-miterlimit="10" d="M1070.8,693.23c0,0,10.866-68.563,28.2-95.897"/>
			<linearGradient id="SVGID_54_" gradientUnits="userSpaceOnUse" x1="1098.3262" y1="562.9414" x2="1206.3262" y2="721.6084">
				<stop  offset="0" style="stop-color:#F2F2F2;stop-opacity:0"/>
				<stop  offset="1" style="stop-color:#F2F2F2"/>
			</linearGradient>
			<path fill="url(#SVGID_54_)" d="M1152.03,614c0.2,2.35-0.3,5.24-1.431,8.52c-9.619-0.409-19.31-1.06-28.88-1.689
				c-3.96-0.26-7.93-0.38-11.899-0.47c4.33-6.341,8.35-12.24,11.66-17.37c1.949-0.11,3.8-0.2,5.42-0.29
				c8.5-0.5,17.17-0.351,25.79-0.42C1152.07,606.84,1151.76,610.87,1152.03,614z"/>
			<linearGradient id="SVGID_55_" gradientUnits="userSpaceOnUse" x1="1117.2754" y1="550.043" x2="1225.2754" y2="708.71">
				<stop  offset="0" style="stop-color:#F2F2F2;stop-opacity:0"/>
				<stop  offset="1" style="stop-color:#F2F2F2"/>
			</linearGradient>
			<path fill="url(#SVGID_55_)" d="M1131.33,585.03c7.86-3.11,17.05-5.05,25.76-6.471c-1.04,5.24-2.14,10.53-3.05,15.521
				c-5-0.08-9.99-0.09-14.9-0.08c-3.739,0.01-8.109,0.34-12.26,0.13L1131.33,585.03z"/>
		</g>
		<g>
			<circle fill="#EF703F" cx="870.971" cy="234.029" r="43.009"/>
			<linearGradient id="SVGID_56_" gradientUnits="userSpaceOnUse" x1="827.9619" y1="234.0293" x2="913.9795" y2="234.0293">
				<stop  offset="0" style="stop-color:#575581;stop-opacity:0"/>
				<stop  offset="1" style="stop-color:#575581"/>
			</linearGradient>
			<path fill="url(#SVGID_56_)" d="M913.979,234.029c0,20.246-13.991,37.221-32.825,41.79c-2.855,0.696-5.814,1.108-8.862,1.198
				c-0.439,0.014-0.882,0.021-1.321,0.021c-23.754,0-43.009-19.254-43.009-43.009s19.255-43.009,43.009-43.009
				c11.278,0,21.538,4.342,29.211,11.438c6.441,5.966,11.059,13.887,12.903,22.812C913.67,228.097,913.979,231.028,913.979,234.029z
				"/>
			<linearGradient id="SVGID_57_" gradientUnits="userSpaceOnUse" x1="898.0645" y1="159.7783" x2="830.6263" y2="407.5101">
				<stop  offset="0" style="stop-color:#575581;stop-opacity:0"/>
				<stop  offset="1" style="stop-color:#575581"/>
			</linearGradient>
			<path fill="url(#SVGID_57_)" d="M913.979,234.029c0,20.246-11.753,37.221-27.572,41.79c-2.398,0.696-4.884,1.108-7.445,1.198
				c-0.37,0.014-0.74,0.021-1.11,0.021c-19.952,0-36.127-19.254-36.127-43.009s16.175-43.009,36.127-43.009
				c9.474,0,18.092,4.342,24.538,11.438c5.409,5.966,9.288,13.887,10.838,22.812C913.72,228.097,913.979,231.028,913.979,234.029z"
				/>
			<linearGradient id="SVGID_58_" gradientUnits="userSpaceOnUse" x1="935.8213" y1="140.8857" x2="836.73" y2="421.6444">
				<stop  offset="0" style="stop-color:#F2F2F2;stop-opacity:0"/>
				<stop  offset="1" style="stop-color:#F2F2F2"/>
			</linearGradient>
			<path opacity="0.2" fill="url(#SVGID_58_)" d="M913.979,234.029c0,20.246-13.991,37.221-32.825,41.79
				c-0.584-2.828-0.895-5.759-0.895-8.76c0-20.245,13.984-37.221,32.825-41.79C913.67,228.097,913.979,231.028,913.979,234.029z"/>
		</g>
	</g>
</g>
</svg>
